<?xml version="1.0" standalone="no"?>
<!DOCTYPE svg PUBLIC "-//W3C//DTD SVG 20010904//EN"
 "http://www.w3.org/TR/2001/REC-SVG-20010904/DTD/svg10.dtd">
<svg version="1.0" xmlns="http://www.w3.org/2000/svg"
 width="152.000000pt" height="148.000000pt" viewBox="0 0 152.000000 148.000000"
 preserveAspectRatio="xMidYMid meet">
<metadata>
Created by potrace 1.15, written by Peter Selinger 2001-2017
</metadata>
<g transform="translate(0.000000,148.000000) scale(0.100000,-0.100000)"
fill="#000000" stroke="none">
<path d="M770 1326 c0 -4 20 -41 45 -83 24 -42 42 -80 39 -85 -3 -4 -96 -8
-207 -9 -168 0 -211 -3 -257 -19 l-55 -18 283 -1 c155 -1 282 1 282 3 0 4
-119 208 -126 215 -2 2 -4 1 -4 -3z"/>
<path d="M924 1190 c13 -25 61 -107 105 -184 45 -76 81 -141 81 -145 0 -3 7
-14 15 -24 12 -17 20 -8 89 110 57 96 72 129 60 131 -23 5 -39 -12 -89 -98
-25 -43 -52 -83 -59 -89 -11 -9 -32 21 -104 146 -83 145 -157 259 -98 153z"/>
<path d="M490 1035 c-22 -17 -64 -77 -122 -176 -48 -83 -88 -153 -88 -156 0
-2 -12 -29 -26 -59 -14 -29 -24 -64 -22 -76 2 -16 45 51 147 227 166 288 153
265 149 265 -2 0 -19 -11 -38 -25z"/>
<path d="M547 948 c-30 -51 -66 -114 -81 -140 l-27 -47 44 -73 c24 -40 55 -93
68 -117 56 -103 29 -91 212 -91 l163 0 82 141 83 141 -22 37 c-12 20 -31 52
-41 71 -11 19 -38 65 -60 103 l-39 67 -164 0 -164 0 -54 -92z"/>
<path d="M1296 941 c-23 -36 -36 -140 -36 -278 l0 -153 -92 0 c-70 0 -103 -5
-133 -19 l-40 -19 158 -1 157 -1 0 240 c0 132 -2 240 -4 240 -3 0 -7 -4 -10
-9z"/>
<path d="M420 640 c7 -14 55 -98 106 -187 52 -89 94 -165 94 -168 0 -12 -25
-1 -161 78 -165 95 -168 96 -192 88 -13 -5 42 -41 203 -133 215 -122 220 -125
199 -90 -12 21 -71 123 -131 227 -97 168 -154 258 -118 185z"/>
<path d="M1104 381 c-39 -15 -127 -60 -196 -99 -69 -40 -132 -72 -139 -72 -8
0 -34 34 -57 75 -24 41 -46 75 -49 75 -3 0 6 -19 20 -42 13 -24 39 -69 57
-101 23 -42 37 -57 48 -52 9 3 61 32 116 64 56 32 146 84 201 116 55 31 102
59 104 61 13 12 -44 -2 -105 -25z"/>
</g>
</svg>
