<?xml version="1.0" standalone="no"?><!-- Generator: Gravit.io --><svg xmlns="http://www.w3.org/2000/svg" xmlns:xlink="http://www.w3.org/1999/xlink" style="isolation:isolate" viewBox="0 0 300 300" width="300" height="300"><defs><clipPath id="_clipPath_tw5cNvguNiGsKinUMyjOArRf4VRXBKvR"><rect width="300" height="300"/></clipPath></defs><g clip-path="url(#_clipPath_tw5cNvguNiGsKinUMyjOArRf4VRXBKvR)"><g style="isolation:isolate" id="Layer 0"><path d=" M 23 149.114 L 38 124.114 L 38 175.114 L 23 149.114 Z " fill="rgb(248,147,31)" vector-effect="non-scaling-stroke" stroke-width="1" stroke="rgb(0,0,0)" stroke-linejoin="miter" stroke-linecap="square" stroke-miterlimit="3"/><path d=" M 278 149.114 L 263 124.114 L 263 175.114 L 278 149.114 Z " fill="rgb(248,147,31)" vector-effect="non-scaling-stroke" stroke-width="1" stroke="rgb(0,0,0)" stroke-linejoin="miter" stroke-linecap="square" stroke-miterlimit="3"/><path d=" M 87.337 39.469 L 116.49 39.693 L 72.558 65.596 L 87.337 39.469 Z " fill="rgb(248,147,31)" vector-effect="non-scaling-stroke" stroke-width="1" stroke="rgb(0,0,0)" stroke-linejoin="miter" stroke-linecap="square" stroke-miterlimit="3"/><path d=" M 87.337 259.24 L 116.49 259.017 L 72.558 233.114 L 87.337 259.24 Z " fill="rgb(248,147,31)" vector-effect="non-scaling-stroke" stroke-width="1" stroke="rgb(0,0,0)" stroke-linejoin="miter" stroke-linecap="square" stroke-miterlimit="3"/><path d=" M 215.517 39.776 L 229.627 65.289 L 185.5 39.718 L 215.517 39.776 Z " fill="rgb(248,147,31)" vector-effect="non-scaling-stroke" stroke-width="1" stroke="rgb(0,0,0)" stroke-linejoin="miter" stroke-linecap="square" stroke-miterlimit="3"/><path d=" M 216.017 258.905 L 230.127 233.392 L 186 258.962 L 216.017 258.905 Z " fill="rgb(248,147,31)" vector-effect="non-scaling-stroke" stroke-width="1" stroke="rgb(0,0,0)" stroke-linejoin="miter" stroke-linecap="square" stroke-miterlimit="3"/><path d=" M 47 92.114 L 107 92.114 L 49 192.114 L 47 92.114 Z " fill="rgb(248,147,31)" vector-effect="non-scaling-stroke" stroke-width="1" stroke="rgb(0,0,0)" stroke-linejoin="miter" stroke-linecap="square" stroke-miterlimit="3"/><path d=" M 256 206.114 L 196 206.114 L 254 106.114 L 256 206.114 Z " fill="rgb(248,147,31)" vector-effect="non-scaling-stroke" stroke-width="1" stroke="rgb(0,0,0)" stroke-linejoin="miter" stroke-linecap="square" stroke-miterlimit="3"/><path d=" M 251.939 88.073 L 221.657 139.871 L 164.6 39.33 L 251.939 88.073 Z " fill="rgb(248,147,31)" vector-effect="non-scaling-stroke" stroke-width="1" stroke="rgb(0,0,0)" stroke-linejoin="miter" stroke-linecap="square" stroke-miterlimit="3"/><path d=" M 50 210.497 L 80.282 158.699 L 137.339 259.24 L 50 210.497 Z " fill="rgb(248,147,31)" vector-effect="non-scaling-stroke" stroke-width="1" stroke="rgb(0,0,0)" stroke-linejoin="miter" stroke-linecap="square" stroke-miterlimit="3"/><path d=" M 147.806 31.418 L 177.597 83.5 L 61.996 82.806 L 147.806 31.418 Z " fill="rgb(248,147,31)" vector-effect="non-scaling-stroke" stroke-width="1" stroke="rgb(0,0,0)" stroke-linejoin="miter" stroke-linecap="square" stroke-miterlimit="3"/><path d=" M 153.791 267.195 L 124 215.114 L 239.601 215.808 L 153.791 267.195 Z " fill="rgb(248,147,31)" vector-effect="non-scaling-stroke" stroke-width="1" stroke="rgb(0,0,0)" stroke-linejoin="miter" stroke-linecap="square" stroke-miterlimit="3"/><path d=" M 119.5 96.807 L 181.5 96.807 L 211.5 148.807 L 181.5 201.807 L 119.5 201.807 L 89.5 148.807 L 119.5 96.807 Z " fill="rgb(51,51,51)" vector-effect="non-scaling-stroke" stroke-width="1" stroke="rgb(0,0,0)" stroke-linejoin="miter" stroke-linecap="square" stroke-miterlimit="3"/></g></g></svg>